<?xml version="1.0" encoding="utf-8"?>
<!-- Generator: Adobe Illustrator 15.0.0, SVG Export Plug-In  -->
<!DOCTYPE svg PUBLIC "-//W3C//DTD SVG 1.1//EN" "http://www.w3.org/Graphics/SVG/1.1/DTD/svg11.dtd" [
	<!ENTITY ns_flows "http://ns.adobe.com/Flows/1.0/">
]>
<svg version="1.1"
	 xmlns="http://www.w3.org/2000/svg" xmlns:xlink="http://www.w3.org/1999/xlink" xmlns:a="http://ns.adobe.com/AdobeSVGViewerExtensions/3.0/"
	 x="0px" y="0px" width="677px" height="387px" viewBox="19.1 13.9 677 387"
	 style="overflow:visible;enable-background:new 19.1 13.9 677 387;" xml:space="preserve">
<defs>
</defs>
<polygon style="display:none;fill:none;stroke:#EF4136;stroke-width:10;stroke-miterlimit:10;" points="708.7,207.4 537.7,18.4 
	177.7,18.4 6.7,207.4 177.7,396.4 537.7,396.4 "/>
<polygon style="display:none;fill:none;stroke:#EF4136;stroke-width:10;stroke-miterlimit:10;" points="708.7,207.4 537.7,18.4 
	177.7,18.4 6.7,207.4 177.7,396.4 537.7,396.4 "/>
<path style="display:none;fill:#EF4136;" d="M222.7,351.4l-135-144l134.9-144h270.1l135,144l-135,144H220.9H222.7z M708.7,207.4
	l-171-189h-360l-171,189l171,189c0,0,360,0,360,0L708.7,207.4z"/>
<polygon style="fill:#E54A45;" points="220.9,350.9 288.8,350.9 356.8,350.9 424.8,350.9 492.7,350.9 526.5,315 560.2,279.1 
	594,243.2 627.7,207.4 594,171.5 560.2,135.6 526.5,99.7 492.7,63.9 425.2,63.9 357.7,63.9 290.1,63.9 222.6,63.9 188.9,99.7 
	155.2,135.6 121.5,171.5 87.7,207.4 121.5,243.2 155.2,279.1 189,315 222.7,350.9 222.3,350.9 221.8,350.9 221.3,350.9 "/>
<polygon style="fill:#E54A45;" points="514.4,400.9 436,400.9 357.7,400.9 279.4,400.9 201.1,400.9 155.6,352.5 110.1,304.1 
	64.6,255.7 19.1,207.4 64.6,159 110.1,110.6 155.5,62.2 201,13.9 279.3,13.9 357.7,13.9 436,13.9 514.4,13.9 559.9,62.2 
	605.4,110.6 650.9,159 696.4,207.4 650.9,255.7 605.4,304.1 559.9,352.5 "/>
<polygon style="fill:#E54A45;" points="244.4,300.9 301,300.9 357.7,300.9 414.4,300.9 471.1,300.9 493.1,277.5 515.1,254.1 
	537.1,230.7 559.1,207.4 537.1,184 515.1,160.6 493.1,137.2 471.1,113.9 414.4,113.9 357.7,113.9 301,113.9 244.2,113.9 
	222.3,137.2 200.3,160.6 178.3,184 156.4,207.3 178.4,230.7 200.4,254.1 222.4,277.5 "/>
<line style="display:none;fill:none;stroke:#F1F2F2;stroke-miterlimit:10;" x1="222.7" y1="63.4" x2="492.7" y2="351.4"/>
<line style="display:none;fill:none;stroke:#F1F2F2;stroke-miterlimit:10;" x1="289.2" y1="352.4" x2="526.4" y2="99.3"/>
<line style="display:none;fill:none;stroke:#F1F2F2;stroke-miterlimit:10;" x1="357.7" y1="351.4" x2="560.2" y2="135.4"/>
<line style="display:none;fill:none;stroke:#F1F2F2;stroke-miterlimit:10;" x1="357.7" y1="63.4" x2="560.2" y2="279.4"/>
<line style="display:none;fill:none;stroke:#F1F2F2;stroke-miterlimit:10;" x1="425.7" y1="351.4" x2="594" y2="171.4"/>
<line style="display:none;fill:none;stroke:#F1F2F2;stroke-miterlimit:10;" x1="492.7" y1="63.4" x2="222.7" y2="351.4"/>
<line style="display:none;fill:none;stroke:#F1F2F2;stroke-miterlimit:10;" x1="357.7" y1="63.4" x2="155.2" y2="279.4"/>
<line style="display:none;fill:none;stroke:#F1F2F2;stroke-miterlimit:10;" x1="424.7" y1="63.4" x2="189" y2="315.4"/>
<line style="display:none;fill:none;stroke:#F1F2F2;stroke-miterlimit:10;" x1="155.4" y1="135.1" x2="357.7" y2="351.4"/>
<line style="display:none;fill:none;stroke:#F1F2F2;stroke-miterlimit:10;" x1="289.2" y1="352.4" x2="121.5" y2="171.4"/>
<line style="display:none;fill:none;stroke:#F1F2F2;stroke-miterlimit:10;" x1="425.7" y1="351.4" x2="189" y2="99.3"/>
<line style="display:none;fill:none;stroke:#F1F2F2;stroke-miterlimit:10;" x1="290.2" y1="63.4" x2="526.5" y2="315.4"/>
<line style="display:none;fill:none;stroke:#F1F2F2;stroke-miterlimit:10;" x1="424.7" y1="63.4" x2="594" y2="243.4"/>
<line style="display:none;fill:none;stroke:#F1F2F2;stroke-miterlimit:10;" x1="290.2" y1="63.4" x2="118.7" y2="243.4"/>
<line style="display:none;fill:none;stroke:#F1F2F2;stroke-miterlimit:10;" x1="627.7" y1="207.4" x2="87.7" y2="207.4"/>
<line style="display:none;fill:none;stroke:#F1F2F2;stroke-miterlimit:10;" x1="121.5" y1="171.4" x2="594" y2="171.4"/>
<line style="display:none;fill:none;stroke:#F1F2F2;stroke-miterlimit:10;" x1="560.2" y1="135.4" x2="155.4" y2="135.1"/>
<line style="display:none;fill:none;stroke:#F1F2F2;stroke-miterlimit:10;" x1="189" y1="99.3" x2="526.4" y2="99.3"/>
<line style="display:none;fill:none;stroke:#F1F2F2;stroke-miterlimit:10;" x1="118.7" y1="243.4" x2="594" y2="243.4"/>
<line style="display:none;fill:none;stroke:#F1F2F2;stroke-miterlimit:10;" x1="560.2" y1="279.4" x2="155.2" y2="279.4"/>
<line style="display:none;fill:none;stroke:#F1F2F2;stroke-miterlimit:10;" x1="189" y1="315.4" x2="526.5" y2="315.4"/>
<line style="display:none;fill:none;stroke:#939598;stroke-miterlimit:10;" x1="258.7" y1="99.4" x2="168.7" y2="9.4"/>
<line style="display:none;fill:none;stroke:#939598;stroke-miterlimit:10;" x1="456.7" y1="99.4" x2="555.7" y2="0.4"/>
<line style="display:none;fill:none;stroke:#939598;stroke-miterlimit:10;" x1="456.7" y1="315.4" x2="546.7" y2="405.4"/>
<line style="display:none;fill:none;stroke:#939598;stroke-miterlimit:10;" x1="258.7" y1="315.4" x2="177.7" y2="396.4"/>
<polygon style="fill:#FFFFFF;" points="392.2,244.1 383.6,234.9 375,225.7 366.4,216.5 357.7,207.4 391.5,171.4 425.2,135.4 
	459,99.4 492.7,63.4 475.9,63.4 459,63.4 442.1,63.4 425.2,63.4 391.5,99.4 357.7,135.4 324,171.4 290.2,207.4 324,243.4 
	357.7,279.4 391.5,315.4 425.2,351.4 442.1,351.4 459,351.4 475.9,351.4 492.7,351.4 475.9,333.4 459,315.4 442.1,297.4 
	425.2,279.4 442.1,261.4 459,243.4 475.9,225.4 492.7,207.4 484.2,198.2 475.6,189.1 467.1,180 458.5,170.8 441.4,189.2 
	424.4,207.5 407.3,225.8 390.2,244.1 390.7,244.1 391.2,244.1 391.7,244.1 "/>
<polygon style="fill:#FFFFFF;" points="359.2,351.4 341.9,351.4 324.6,351.4 307.3,351.4 289.9,351.4 256.1,315.4 222.2,279.4 
	188.3,243.4 154.4,207.4 188.1,171.4 221.7,135.4 255.3,99.4 288.9,63.4 306.5,63.4 324.1,63.4 341.7,63.4 359.2,63.4 324.8,99.4 
	290.5,135.4 256.1,171.4 221.7,207.4 256.1,243.4 290.5,279.4 324.8,315.4 "/>
</svg>
